# xmcd CD database file
# Copyright (C) 1997 Ti Kan
#
# Track frame offsets:
#  182
#  24690
#  56527
#  122280
#  137640
#  191030
#  204265
#  221675
#  236235
#  259900
#  282725
#  300245
#
# Disc length: 4257 seconds
#
# Revision: 1
# Processed by: cddbd v1.4b41PL1 Copyright (c) Steve Scherf et al.
# Submitted via: CDWizzard Release:4.30
#
DISCID=b2109f0c
DTITLE=Stevie Ray Vaughan And Double Trouble - The Understanding of Love 
DTITLE=[CD2]
DYEAR=1900
DGENRE=
TTITLE0=Rude Mood
TTITLE1=Ain't Gonna Give Up On Love
TTITLE2=Voodoo Chile
TTITLE3=Pride And Joy
TTITLE4=Life Without You
TTITLE5=Rude Mood (Acoustic from MTV Unplugged)
TTITLE6=Pride And Joy
TTITLE7=Testify
TTITLE8=Love Struck Baby
TTITLE9=Say What
TTITLE10=Say What
TTITLE11=Change It (w/ Jimmy Vaughan)
EXTD=Track 1: Culturehouse Helsinki, Finland, 3/27/1984\n\nTracks 2-5: Fi
EXTD=nish TV\nTracks 6-8: MTV Unplugged\nTracks 9-12: Various MTV Live Pe
EXTD=rformances
EXTT0=
EXTT1=
EXTT2=
EXTT3=
EXTT4=
EXTT5=
EXTT6=
EXTT7=
EXTT8=
EXTT9=
EXTT10=
EXTT11=
PLAYORDER=
